<svg width="872" height="400" viewBox="0 0 872 400" fill="none" xmlns="http://www.w3.org/2000/svg">
<g opacity="0.7" filter="url(#filter0_i_115_9216)">
<path fill-rule="evenodd" clip-rule="evenodd" d="M714.052 3.09176C680.497 7.97249 642.672 25.0638 613.921 48.3378C597.927 61.285 579.445 81.505 570.264 96.1011C568.37 99.1127 567.858 102.792 568.857 106.206L569.095 107.022C571.414 114.949 576.109 124.169 581.199 130.794C584.85 135.548 584.981 135.948 582.658 135.267C573.327 132.525 555.107 118.373 550.333 110.157C545.63 102.063 545.053 97.8444 547.783 91.5387C550.094 86.2002 558.706 74.0939 566.642 65.0263L566.827 64.8158C569.034 62.2941 569.487 58.6835 567.969 55.6951C564.573 49.002 559.03 32.5572 557.279 23.9759C556.457 19.9478 552.807 17.131 548.702 17.3574L544.223 17.6044C503.028 19.8768 467.771 44.0411 449.789 82.3272C437.673 108.127 435.387 136.59 443.126 165.323C448.586 185.596 460.941 206.445 476.917 222.35C485.198 230.593 497.473 240.715 500.705 241.964C501.395 242.23 504.835 240.618 508.353 238.383C517.1 232.823 527.332 228.348 536.212 226.198C545.024 224.063 566.829 223.683 570.167 225.605C571.515 226.381 571.779 226.888 570.844 226.909C568.395 226.962 552.118 235.533 543.522 241.297C531.528 249.339 511.891 268.697 507.09 277.212C506.496 278.268 492.148 270.648 481.776 263.768C440.624 236.471 415.441 194.049 410.714 144.06C410.201 138.626 409.944 126.916 410.144 118.038L410.412 106.191C410.469 103.667 408.802 101.427 406.368 100.757C404.091 100.129 396.83 99.0322 390.234 98.3186C368.082 95.9221 340.193 100.151 315.9 109.588C288.173 120.36 267.737 133.054 226.004 165.431C185.836 196.593 170.539 206.146 149.66 213.106C128.408 220.19 105.3 219.51 84.5733 211.191C80.6875 209.632 77.3089 208.554 77.0658 208.797C76.3256 209.532 81.9912 221.055 85.7952 226.548C91.6509 235.005 103.963 247.177 112.802 253.248C124.033 260.962 139.755 268.184 152.778 271.612C162.178 274.085 165.873 274.462 181.257 274.513C195.891 274.561 200.614 274.156 208.691 272.163C227.642 267.485 244.64 259.201 260.101 247.109C268.742 240.35 269.093 240.188 269.093 242.956C269.093 252.361 259.899 274.044 250.828 286.034C244.914 293.853 234.733 302.791 225.163 308.567C221.029 311.063 218.355 315.401 217.984 320.215L217.833 322.161C217.425 327.451 216.822 335.238 216.494 339.464C216.166 343.691 214.998 357.77 213.9 370.751C212.801 383.732 212.121 394.723 212.389 395.177C212.657 395.63 237.676 396 267.988 396C298.299 396 323.31 395.63 323.565 395.177C323.821 394.723 322.905 383.238 321.531 369.653C320.155 356.068 319.354 344.648 319.75 344.275C320.144 343.902 329.29 337.121 340.073 329.205L346.167 324.731C354.737 318.44 365.638 316.234 375.98 318.698C402.049 324.91 425.192 330.133 426.646 330.133C427.384 330.133 430.437 327.046 433.429 323.272C436.421 319.499 441.313 314.002 444.302 311.059C449.743 305.699 460.982 297.576 461.81 298.405C462.052 298.648 459.809 307.492 456.826 318.058C453.842 328.624 451.594 338.103 451.828 339.123C452.063 340.144 459.347 353.358 468.015 368.489C477.762 385.504 495.871 396 515.48 396H538.293C568.279 396 592.813 395.719 592.813 395.376C592.813 395.034 587.616 387.889 581.263 379.498C562.652 354.918 555.492 336.738 558.21 320.967C563.246 291.759 591.387 272.847 629.707 272.916C655.819 272.963 675.716 279.128 693.904 292.808C701.997 298.893 702.17 298.909 711.032 294.368C733.002 283.11 749.701 255.924 749.701 231.417C749.701 220.362 747.833 213.08 742.292 202.547L741.625 201.279C739.691 197.6 740.234 193.109 742.99 189.998C748.254 184.057 753.211 174.193 755.321 165.466C757.134 157.964 757.129 140.669 755.312 132.216C754.712 129.423 751.292 128.356 749.21 130.312L744.264 134.96C727.863 150.375 714.74 156.557 696.387 157.514C677.987 158.474 659.212 152.004 640.874 138.385C627.885 128.739 628.311 129.688 631.967 118.535C639.592 95.2689 656.616 70.2659 687.839 36.4774C695.65 28.0245 706.513 17.1565 711.979 12.3263C721.116 4.251 723.432 1.67892 721.251 2.0313C720.795 2.10485 717.556 2.58239 714.052 3.09176ZM770.141 60.1971C726.84 64.7211 689.917 80.5521 664.16 105.637C659.82 109.864 654.851 115.185 653.118 117.463C650.111 121.413 650.054 121.7 651.874 123.698C655.133 127.277 673.633 135.814 681.753 137.487C694.669 140.149 694.147 140.355 704.513 128.546C726.276 103.752 758.336 78.3412 784 65.5444C790.05 62.5277 795 59.8173 795 59.5209C795 58.7316 780.353 59.1301 770.141 60.1971ZM598.6 173.918C598.152 175.006 597.84 178.731 597.906 182.198C598.323 203.709 623.38 215.571 640.55 202.387C643.013 200.495 646.075 197.13 647.357 194.907L647.797 194.144C648.919 192.199 648.63 189.748 647.088 188.116C640.732 181.394 622.311 174.422 606.334 172.691C600.288 172.036 599.313 172.19 598.6 173.918ZM613.085 295.465C600.548 298.486 586.852 308.114 581.503 317.666C580.501 319.455 581.354 321.715 583.288 322.396L589.789 324.684C595.402 326.66 600.339 328.57 600.761 328.93C601.182 329.29 598.871 336.158 595.624 344.193L592.058 353.017C590.753 356.247 592.232 359.931 595.409 361.361C598.539 362.769 615.934 371.139 634.065 379.96C652.196 388.782 667.484 396 668.039 396C668.593 396 669.047 395.167 669.047 394.149C669.047 393.132 672.309 375.801 676.295 355.636C684.598 313.638 684.827 317.386 673.444 308.884C664.975 302.559 654.965 297.756 645.748 295.598C637.304 293.62 621.014 293.554 613.085 295.465ZM361.094 343.245C356.702 343.657 352.872 344.227 352.584 344.512C352.297 344.798 359.397 356.376 368.363 370.242C378.538 385.977 395.946 395.54 414.684 395.687L421.343 395.74C441.516 395.899 458.022 395.756 458.022 395.423C458.022 394.124 453.093 385.281 449.134 379.475C437.853 362.933 413.997 348.303 392.145 344.527C382.746 342.903 370.264 342.388 361.094 343.245Z" fill="#FBFAF9"/>
</g>
<rect width="872" height="400" fill="url(#paint0_linear_115_9216)"/>
<defs>
<filter id="filter0_i_115_9216" x="77" y="2" width="718" height="394" filterUnits="userSpaceOnUse" color-interpolation-filters="sRGB">
<feFlood flood-opacity="0" result="BackgroundImageFix"/>
<feBlend mode="normal" in="SourceGraphic" in2="BackgroundImageFix" result="shape"/>
<feColorMatrix in="SourceAlpha" type="matrix" values="0 0 0 0 0 0 0 0 0 0 0 0 0 0 0 0 0 0 127 0" result="hardAlpha"/>
<feOffset dy="-8"/>
<feComposite in2="hardAlpha" operator="arithmetic" k2="-1" k3="1"/>
<feColorMatrix type="matrix" values="0 0 0 0 0.921569 0 0 0 0 0.905882 0 0 0 0 0.878431 0 0 0 1 0"/>
<feBlend mode="normal" in2="shape" result="effect1_innerShadow_115_9216"/>
</filter>
<linearGradient id="paint0_linear_115_9216" x1="436" y1="0" x2="436" y2="400" gradientUnits="userSpaceOnUse">
<stop stop-color="#121216" stop-opacity="0"/>
<stop offset="1" stop-color="#121216"/>
</linearGradient>
</defs>
</svg>
