<svg width="1345" height="820" viewBox="0 0 1345 820" fill="none" xmlns="http://www.w3.org/2000/svg">
<line x1="672.5" y1="-2.18557e-08" x2="672.5" y2="820" stroke="url(#paint0_linear_115_2166)"/>
<line x1="896.5" y1="-2.18557e-08" x2="896.5" y2="820" stroke="url(#paint1_linear_115_2166)"/>
<line x1="1008.5" y1="-2.18557e-08" x2="1008.5" y2="820" stroke="url(#paint2_linear_115_2166)"/>
<line x1="1120.5" y1="-2.18557e-08" x2="1120.5" y2="820" stroke="url(#paint3_linear_115_2166)"/>
<line x1="1232.5" y1="-2.18557e-08" x2="1232.5" y2="820" stroke="url(#paint4_linear_115_2166)"/>
<line x1="1344.5" y1="-2.18557e-08" x2="1344.5" y2="820" stroke="url(#paint5_linear_115_2166)"/>
<line x1="784.5" y1="-2.18557e-08" x2="784.5" y2="820" stroke="url(#paint6_linear_115_2166)"/>
<line x1="0.5" y1="-2.18557e-08" x2="0.500036" y2="820" stroke="url(#paint7_linear_115_2166)"/>
<line x1="224.5" y1="-2.18557e-08" x2="224.5" y2="820" stroke="url(#paint8_linear_115_2166)"/>
<line x1="336.5" y1="-2.18557e-08" x2="336.5" y2="820" stroke="url(#paint9_linear_115_2166)"/>
<line x1="448.5" y1="-2.18557e-08" x2="448.5" y2="820" stroke="url(#paint10_linear_115_2166)"/>
<line x1="560.5" y1="-2.18557e-08" x2="560.5" y2="820" stroke="url(#paint11_linear_115_2166)"/>
<line x1="112.5" y1="-2.18557e-08" x2="112.5" y2="820" stroke="url(#paint12_linear_115_2166)"/>
<defs>
<linearGradient id="paint0_linear_115_2166" x1="671.999" y1="607.858" x2="672" y2="820" gradientUnits="userSpaceOnUse">
<stop stop-color="#17171C"/>
<stop offset="1" stop-color="#17171C" stop-opacity="0"/>
</linearGradient>
<linearGradient id="paint1_linear_115_2166" x1="895.999" y1="607.858" x2="896" y2="820" gradientUnits="userSpaceOnUse">
<stop stop-color="#17171C"/>
<stop offset="1" stop-color="#17171C" stop-opacity="0"/>
</linearGradient>
<linearGradient id="paint2_linear_115_2166" x1="1008" y1="607.858" x2="1008" y2="820" gradientUnits="userSpaceOnUse">
<stop stop-color="#17171C"/>
<stop offset="1" stop-color="#17171C" stop-opacity="0"/>
</linearGradient>
<linearGradient id="paint3_linear_115_2166" x1="1120" y1="607.858" x2="1120" y2="820" gradientUnits="userSpaceOnUse">
<stop stop-color="#17171C"/>
<stop offset="1" stop-color="#17171C" stop-opacity="0"/>
</linearGradient>
<linearGradient id="paint4_linear_115_2166" x1="1232" y1="607.858" x2="1232" y2="820" gradientUnits="userSpaceOnUse">
<stop stop-color="#17171C"/>
<stop offset="1" stop-color="#17171C" stop-opacity="0"/>
</linearGradient>
<linearGradient id="paint5_linear_115_2166" x1="1344" y1="607.858" x2="1344" y2="820" gradientUnits="userSpaceOnUse">
<stop stop-color="#17171C"/>
<stop offset="1" stop-color="#17171C" stop-opacity="0"/>
</linearGradient>
<linearGradient id="paint6_linear_115_2166" x1="783.999" y1="607.858" x2="784" y2="820" gradientUnits="userSpaceOnUse">
<stop stop-color="#17171C"/>
<stop offset="1" stop-color="#17171C" stop-opacity="0"/>
</linearGradient>
<linearGradient id="paint7_linear_115_2166" x1="-0.000900145" y1="607.858" x2="-0.000124182" y2="820" gradientUnits="userSpaceOnUse">
<stop stop-color="#17171C"/>
<stop offset="1" stop-color="#17171C" stop-opacity="0"/>
</linearGradient>
<linearGradient id="paint8_linear_115_2166" x1="223.999" y1="607.858" x2="224" y2="820" gradientUnits="userSpaceOnUse">
<stop stop-color="#17171C"/>
<stop offset="1" stop-color="#17171C" stop-opacity="0"/>
</linearGradient>
<linearGradient id="paint9_linear_115_2166" x1="335.999" y1="607.858" x2="336" y2="820" gradientUnits="userSpaceOnUse">
<stop stop-color="#17171C"/>
<stop offset="1" stop-color="#17171C" stop-opacity="0"/>
</linearGradient>
<linearGradient id="paint10_linear_115_2166" x1="447.999" y1="607.858" x2="448" y2="820" gradientUnits="userSpaceOnUse">
<stop stop-color="#17171C"/>
<stop offset="1" stop-color="#17171C" stop-opacity="0"/>
</linearGradient>
<linearGradient id="paint11_linear_115_2166" x1="559.999" y1="607.858" x2="560" y2="820" gradientUnits="userSpaceOnUse">
<stop stop-color="#17171C"/>
<stop offset="1" stop-color="#17171C" stop-opacity="0"/>
</linearGradient>
<linearGradient id="paint12_linear_115_2166" x1="111.999" y1="607.858" x2="112" y2="820" gradientUnits="userSpaceOnUse">
<stop stop-color="#17171C"/>
<stop offset="1" stop-color="#17171C" stop-opacity="0"/>
</linearGradient>
</defs>
</svg>
